<svg xmlns="http://www.w3.org/2000/svg" width="26" height="29" viewBox="0 0 26 29">
  <defs>
    <style>
      .cls-1 {
        fill: #fff;
      }

      .cls-2 {
        fill: #007c39;
      }
    </style>
  </defs>
  <g id="Vector_Smart_Object" data-name="Vector Smart Object" transform="translate(-1604 -2489)">
    <g id="Vector_Smart_Object-2" data-name="Vector Smart Object" transform="translate(1482.571 2319.088)">
      <g id="Group_4" data-name="Group 4">
        <path id="Path_5" data-name="Path 5" class="cls-1" d="M125,198.912a3.574,3.574,0,0,1-3.572-3.582V173.494a3.573,3.573,0,0,1,5.358-3.1l18.857,10.918a3.588,3.588,0,0,1,0,6.2l-18.857,10.918A3.56,3.56,0,0,1,125,198.912Z"/>
      </g>
    </g>
    <path id="Color_Overlay" data-name="Color Overlay" class="cls-2" d="M1605.785,2517.52a3.583,3.583,0,0,1-1.786-3.1v-21.836a3.572,3.572,0,0,1,5.358-3.1l18.857,10.918a3.587,3.587,0,0,1,0,6.2l-18.857,10.918a3.566,3.566,0,0,1-3.572,0Z"/>
  </g>
</svg>
