<svg xmlns="http://www.w3.org/2000/svg" width="26.001" height="29" viewBox="0 0 26.001 29">
  <defs>
    <style>
      .cls-1 {
        fill: #fff;
      }

      .cls-2 {
        fill: #007c39;
      }
    </style>
  </defs>
  <g id="Vector_Smart_Object_copy_7" data-name="Vector Smart Object copy 7" transform="translate(-311 -2489)">
    <g id="Vector_Smart_Object_copy_7-2" data-name="Vector Smart Object copy 7" transform="matrix(-1, 0, 0, -1, 458.429, 2319.088)">
      <g id="Group_6" data-name="Group 6">
        <path id="Path_7" data-name="Path 7" class="cls-1" d="M125-198.912a3.566,3.566,0,0,0-1.786.479,3.585,3.585,0,0,0-1.786,3.1v21.836a3.581,3.581,0,0,0,1.786,3.1,3.563,3.563,0,0,0,3.572,0l18.857-10.918a3.587,3.587,0,0,0,1.785-3.1,3.585,3.585,0,0,0-1.785-3.1l-18.857-10.918A3.56,3.56,0,0,0,125-198.912Z"/>
      </g>
    </g>
    <path id="Color_Overlay" data-name="Color Overlay" class="cls-2" d="M331.642,2517.52,312.785,2506.6a3.587,3.587,0,0,1,0-6.2l18.857-10.918a3.572,3.572,0,0,1,5.358,3.1v21.836a3.57,3.57,0,0,1-5.358,3.1Z"/>
  </g>
</svg>
